<svg width="343" height="112" viewBox="0 0 343 112" fill="none" xmlns="http://www.w3.org/2000/svg">
<g filter="url(#filter0_d_5_15)">
<path d="M58.6626 63.0595C59.9555 57.8681 56.9814 54.4995 48.2945 49.8628C41.391 46.134 39.2422 43.5893 40.1968 39.7564C41.4172 34.8561 45.8669 33.9547 49.9909 34.9817C55.4735 36.3471 59.2367 40.6851 59.2792 47.5488L60.9774 47.9717L63.5631 37.5889L62.1561 37.2385L60.2576 43.2066C58.8344 38.3693 55.0963 34.965 50.0989 33.7204C44.3253 32.2826 38.8457 34.2157 37.432 39.8923C36.1995 44.8411 39.3437 48.5612 46.4534 52.2898C54.4851 56.4542 56.8037 59.1443 55.7525 63.3653C54.5683 68.1201 50.1434 69.5429 45.049 68.2742C38.4505 66.6309 34.1406 61.1778 34.3778 55.2597L32.8252 54.873L30.2153 65.3529L31.6223 65.7033L33.5089 59.9899C35.1985 64.3783 39.2643 68.1218 44.8439 69.5113C51.1027 71.07 57.1402 69.1728 58.6626 63.0595Z" fill="#AEB6FF"/>
</g>
<g filter="url(#filter1_d_5_15)">
<path d="M301.216 69.7802C300.51 65.8938 297.952 64.1226 291.168 65.1012L283.788 66.442C279.705 67.1839 278.104 66.7633 277.581 65.283C277.505 65.1443 277.469 64.9476 277.434 64.7508C277.183 63.3733 278.19 61.92 281.557 61.1557C283.1 61.536 284.826 61.5272 286.647 61.1965C291.861 60.249 295.493 56.7433 295.06 51.8417L294.881 50.8578C294.153 47.128 291.523 44.9632 288.102 44.3143C288.5 41.7519 289.829 39.8335 292.132 39.3641C292.722 39.2569 293.281 39.2569 293.769 39.4225C293.362 39.6997 293.12 40.0485 293.004 40.527C292.991 40.7327 292.986 40.9876 293.031 41.2336C293.321 42.5529 294.363 42.9734 295.445 42.7768C296.528 42.5801 297.319 41.6232 297.069 40.2457C296.774 38.6223 294.923 37.3833 292.266 37.866C289.118 38.4381 287.391 40.6829 286.662 44.2203C285.683 44.1441 284.623 44.1843 283.59 44.372C277.981 45.391 274.099 49.1963 274.957 54.478L275.145 55.5111C275.847 57.9753 277.533 59.7018 279.684 60.6322C276.338 61.7991 274.952 63.6772 275.251 65.6047C275.291 66.1056 275.47 66.5305 275.707 66.9956C276.485 68.4804 278.265 69.3259 281.239 69.1921C278.251 70.6496 276.793 72.6932 277.267 75.3005C277.964 79.1377 281.962 80.444 290.178 78.9513C299.721 77.2172 301.886 73.4698 301.216 69.7802ZM278.083 54.0625C277.225 49.3398 279.229 46.3839 283.755 45.5616C288.084 44.775 290.951 46.8459 291.809 51.5686C292.667 56.2912 290.712 59.2382 286.383 60.0248C281.857 60.8471 278.941 58.7851 278.083 54.0625ZM289.963 77.7706C282.928 79.0488 280.236 77.6577 279.655 74.46C279.155 71.7052 280.841 69.5185 288.22 68.1777C295.599 66.8369 298.126 67.5974 298.707 70.7951C299.261 73.8451 297.293 76.4387 289.963 77.7706Z" fill="#AEB6FF"/>
</g>
<g filter="url(#filter2_d_5_15)">
<path d="M86.8 57.7C86.8 49.55 81.6 44.85 75.1 44.85C68.55 44.85 63.4 49.55 63.4 57.7C63.4 65.8 68.55 70.5 75.1 70.5C81.6 70.5 86.8 65.8 86.8 57.7ZM66.7 57.65C66.7 50.25 69.7 46.1 75.1 46.1C80.55 46.1 83.5 50.25 83.5 57.65C83.5 65.1 80.55 69.3 75.1 69.3C69.7 69.3 66.7 65.1 66.7 57.65ZM99.8434 78.8H96.1434C95.2434 78.8 94.8934 78.3 94.8934 77.2V65.15C96.6934 68.65 99.7934 70.5 103.543 70.5C109.893 70.5 114.943 65.8 114.943 57.65C114.943 49.55 109.893 44.85 103.543 44.85C99.7934 44.85 96.6434 46.8 94.8434 50.25H94.5934V45.35H87.8934V46.6H90.6434C91.5434 46.6 91.8434 47.1 91.8434 48.1V77.25C91.8434 78.3 91.5434 78.8 90.6434 78.8H87.8934V80H99.8434V78.8ZM94.7934 57.45C94.7934 50.2 97.7934 46.2 103.193 46.2C108.693 46.2 111.643 50.2 111.643 57.65C111.643 65.15 108.693 69.15 103.243 69.15C97.7934 69.15 94.7934 64.7 94.7934 57.45ZM127.771 68.8H125.171C124.271 68.8 123.921 68.3 123.921 67.2V53.05C126.121 49.25 129.271 46.3 133.371 46.3C135.521 46.3 137.021 47.1 137.921 48.5C138.571 49.45 138.921 50.75 138.921 52.35V67.2C138.921 68.3 138.621 68.8 137.721 68.8H135.121V70H146.171V68.8H143.171C142.321 68.8 141.971 68.3 141.971 67.3V52.7C141.971 48.15 139.621 45.45 135.471 44.95C134.921 44.9 134.321 44.9 133.771 44.9C129.621 44.95 126.621 47.35 124.121 50.65H123.871V34H116.721V35.2H119.671C120.571 35.2 120.871 35.7 120.871 36.75V67.25C120.871 68.3 120.571 68.8 119.671 68.8H116.721V70H127.771V68.8ZM151.593 40.3C153.043 40.3 153.943 39.45 153.943 38.05C153.943 36.6 153.043 35.8 151.593 35.8C150.243 35.8 149.293 36.6 149.293 38.05C149.293 39.45 150.243 40.3 151.593 40.3ZM153.393 45.35H146.193V46.6H149.143C150.043 46.6 150.393 47.1 150.393 48.1V67.25C150.393 68.3 150.043 68.8 149.143 68.8H146.193V70H157.593V68.8H154.643C153.743 68.8 153.393 68.3 153.393 67.2V45.35ZM183.536 66.1V64.65H182.236V66.05C182.236 66.45 182.186 66.8 182.136 67.1C181.986 68.15 181.486 68.8 180.886 69.05C180.686 69.15 180.486 69.2 180.236 69.2C179.186 69.2 178.486 68.45 178.486 66.55V53.45C178.436 47.45 175.436 44.85 169.086 44.85C163.336 44.85 159.486 48.15 159.486 50.65L159.436 50.7C159.436 52 160.336 52.85 161.386 52.9C161.436 52.95 161.536 52.95 161.636 52.95C162.786 52.95 163.786 52.3 163.786 50.9C163.786 49.9 163.136 49.15 162.136 49.1C162.036 49.05 161.886 49.05 161.786 49.05C162.736 47.8 164.586 46.4 167.586 46.15C167.886 46.15 168.236 46.1 168.586 46.1C173.036 46.1 175.136 48.4 175.436 51.6C175.436 51.85 175.486 52.1 175.486 52.4C175.486 54.45 174.686 54.8 165.236 57.8C164.736 57.95 164.336 58.1 163.886 58.25C159.986 59.75 158.886 61.8 158.886 64.5C158.886 67.7 161.236 69.85 164.786 70.35C165.436 70.45 166.136 70.5 166.836 70.45C170.536 70.4 173.536 68.95 175.536 66.4H175.786C175.936 68.1 176.636 69.25 177.786 69.85C178.486 70.3 179.286 70.5 180.236 70.45C182.086 70.4 183.536 69.15 183.536 66.1ZM167.386 69.1C164.286 69.1 162.036 67.5 162.036 64.1C162.036 58 169.836 58.6 175.486 55.4V62.2C175.486 63 175.286 63.8 174.986 64.55C173.986 67.2 171.136 69.1 167.386 69.1ZM210.455 68.75H206.955C206.105 68.75 205.655 68.3 205.655 67.2V36.25H208.605C216.105 36.25 216.955 36.7 217.305 45.9H218.705V35H189.555V45.9H190.955C191.305 36.7 192.155 36.25 199.705 36.25H202.605V67.2C202.605 68.3 202.155 68.75 201.305 68.75H197.805V70H210.455V68.75ZM244.342 66.1V64.65H243.042V66.05C243.042 66.45 242.992 66.8 242.942 67.1C242.792 68.15 242.292 68.8 241.692 69.05C241.492 69.15 241.292 69.2 241.042 69.2C239.992 69.2 239.292 68.45 239.292 66.55V53.45C239.242 47.45 236.242 44.85 229.892 44.85C224.142 44.85 220.292 48.15 220.292 50.65L220.242 50.7C220.242 52 221.142 52.85 222.192 52.9C222.242 52.95 222.342 52.95 222.442 52.95C223.592 52.95 224.592 52.3 224.592 50.9C224.592 49.9 223.942 49.15 222.942 49.1C222.842 49.05 222.692 49.05 222.592 49.05C223.542 47.8 225.392 46.4 228.392 46.15C228.692 46.15 229.042 46.1 229.392 46.1C233.842 46.1 235.942 48.4 236.242 51.6C236.242 51.85 236.292 52.1 236.292 52.4C236.292 54.45 235.492 54.8 226.042 57.8C225.542 57.95 225.142 58.1 224.692 58.25C220.792 59.75 219.692 61.8 219.692 64.5C219.692 67.7 222.042 69.85 225.592 70.35C226.242 70.45 226.942 70.5 227.642 70.45C231.342 70.4 234.342 68.95 236.342 66.4H236.592C236.742 68.1 237.442 69.25 238.592 69.85C239.292 70.3 240.092 70.5 241.042 70.45C242.892 70.4 244.342 69.15 244.342 66.1ZM228.192 69.1C225.092 69.1 222.842 67.5 222.842 64.1C222.842 58 230.642 58.6 236.292 55.4V62.2C236.292 63 236.092 63.8 235.792 64.55C234.792 67.2 231.942 69.1 228.192 69.1ZM255.544 68.8H252.944C252.044 68.8 251.694 68.3 251.694 67.2V53.05C253.894 49.25 257.094 46.3 261.144 46.3C264.794 46.3 266.694 48.5 266.694 52.35V67.2C266.694 68.3 266.394 68.8 265.494 68.8H262.894V70H273.944V68.8H270.994C270.094 68.8 269.744 68.3 269.744 67.3V52.7C269.744 47.65 266.844 44.85 261.794 44.85C257.544 44.85 254.444 47.3 251.894 50.65H251.644V45.35H244.494V46.6H247.444C248.344 46.6 248.694 47.1 248.694 48.1V67.25C248.694 68.3 248.344 68.8 247.444 68.8H244.494V70H255.544V68.8ZM309.748 70.5C311.198 70.5 312.198 69.6 312.198 68.15C312.198 66.65 311.198 65.8 309.748 65.8C308.348 65.8 307.348 66.65 307.348 68.15C307.348 69.6 308.348 70.5 309.748 70.5Z" fill="#AEB6FF"/>
</g>
<defs>
<filter id="filter0_d_5_15" x="0.0944824" y="0.90509" width="94.948" height="101.47" filterUnits="userSpaceOnUse" color-interpolation-filters="sRGB">
<feFlood flood-opacity="0" result="BackgroundImageFix"/>
<feColorMatrix in="SourceAlpha" type="matrix" values="0 0 0 0 0 0 0 0 0 0 0 0 0 0 0 0 0 0 127 0" result="hardAlpha"/>
<feOffset/>
<feGaussianBlur stdDeviation="15"/>
<feComposite in2="hardAlpha" operator="out"/>
<feColorMatrix type="matrix" values="0 0 0 0 0.680599 0 0 0 0 0.712539 0 0 0 0 1 0 0 0 1 0"/>
<feBlend mode="normal" in2="BackgroundImageFix" result="effect1_dropShadow_5_15"/>
<feBlend mode="normal" in="SourceGraphic" in2="effect1_dropShadow_5_15" result="shape"/>
</filter>
<filter id="filter1_d_5_15" x="240.867" y="7.09726" width="92.7903" height="104.062" filterUnits="userSpaceOnUse" color-interpolation-filters="sRGB">
<feFlood flood-opacity="0" result="BackgroundImageFix"/>
<feColorMatrix in="SourceAlpha" type="matrix" values="0 0 0 0 0 0 0 0 0 0 0 0 0 0 0 0 0 0 127 0" result="hardAlpha"/>
<feOffset/>
<feGaussianBlur stdDeviation="15"/>
<feComposite in2="hardAlpha" operator="out"/>
<feColorMatrix type="matrix" values="0 0 0 0 0.680599 0 0 0 0 0.712539 0 0 0 0 1 0 0 0 1 0"/>
<feBlend mode="normal" in2="BackgroundImageFix" result="effect1_dropShadow_5_15"/>
<feBlend mode="normal" in="SourceGraphic" in2="effect1_dropShadow_5_15" result="shape"/>
</filter>
<filter id="filter2_d_5_15" x="33.4" y="4" width="308.798" height="106" filterUnits="userSpaceOnUse" color-interpolation-filters="sRGB">
<feFlood flood-opacity="0" result="BackgroundImageFix"/>
<feColorMatrix in="SourceAlpha" type="matrix" values="0 0 0 0 0 0 0 0 0 0 0 0 0 0 0 0 0 0 127 0" result="hardAlpha"/>
<feOffset/>
<feGaussianBlur stdDeviation="15"/>
<feComposite in2="hardAlpha" operator="out"/>
<feColorMatrix type="matrix" values="0 0 0 0 0.680599 0 0 0 0 0.712539 0 0 0 0 1 0 0 0 1 0"/>
<feBlend mode="normal" in2="BackgroundImageFix" result="effect1_dropShadow_5_15"/>
<feBlend mode="normal" in="SourceGraphic" in2="effect1_dropShadow_5_15" result="shape"/>
</filter>
</defs>
</svg>
